<?xml version="1.0" encoding="UTF-8" standalone="no"?>
<!-- Created with Inkscape (http://www.inkscape.org/) -->

<svg
   width="210mm"
   height="297mm"
   viewBox="0 0 210 297"
   version="1.1"
   id="svg5"
   inkscape:version="1.2.2 (b0a84865, 2022-12-01)"
   sodipodi:docname="drawing.svg"
   xmlns:inkscape="http://www.inkscape.org/namespaces/inkscape"
   xmlns:sodipodi="http://sodipodi.sourceforge.net/DTD/sodipodi-0.dtd"
   xmlns="http://www.w3.org/2000/svg"
   xmlns:svg="http://www.w3.org/2000/svg">
  <sodipodi:namedview
     id="namedview7"
     pagecolor="#505050"
     bordercolor="#eeeeee"
     borderopacity="1"
     inkscape:showpageshadow="0"
     inkscape:pageopacity="0"
     inkscape:pagecheckerboard="0"
     inkscape:deskcolor="#505050"
     inkscape:document-units="mm"
     showgrid="false"
     inkscape:zoom="0.44834108"
     inkscape:cx="180.66602"
     inkscape:cy="468.39339"
     inkscape:window-width="1546"
     inkscape:window-height="822"
     inkscape:window-x="106"
     inkscape:window-y="86"
     inkscape:window-maximized="0"
     inkscape:current-layer="layer1" />
  <defs
     id="defs2">
    <rect
       x="224.46137"
       y="260.48079"
       width="0.14143754"
       height="18.811192"
       id="rect198" />
  </defs>
  <g
     inkscape:label="Layer 1"
     inkscape:groupmode="layer"
     id="layer1">
    <text
       xml:space="preserve"
       transform="scale(0.26458333)"
       id="text196"
       style="font-style:normal;font-variant:normal;font-weight:normal;font-stretch:normal;font-size:12px;font-family:'FREE FAT FONT';-inkscape-font-specification:'FREE FAT FONT, Normal';font-variant-ligatures:normal;font-variant-caps:normal;font-variant-numeric:normal;font-variant-east-asian:normal;white-space:pre;shape-inside:url(#rect198);display:inline;fill:#000000" />
    <g
       id="g580"
       transform="matrix(53.046646,0,0,47.789378,-2525.9663,-3148.5698)"
       style="fill:#000000;fill-opacity:1">
      <g
         id="g563"
         style="fill:#000000;fill-opacity:1">
        <g
           id="g547"
           style="fill:#000000;fill-opacity:1">
          <g
             aria-label="
E"
             transform="scale(1.0606224,0.94284261)"
             id="text113"
             style="font-size:3.38094px;line-height:2.19761px;letter-spacing:-0.0112698px;fill:#000000;fill-opacity:1;stroke-width:0.281745">
            <path
               d="m 46.831735,76.471639 h 1.747946 c 0.02029,0 0.03381,-0.01352 0.03381,-0.03381 v -0.726902 c 0,-0.0169 -0.01352,-0.03043 -0.03381,-0.03043 h -0.767474 v -0.05071 h 0.767474 c 0.02029,0 0.03381,-0.01352 0.03381,-0.03043 V 75.21393 c 0,-0.02028 -0.01352,-0.03381 -0.03381,-0.03381 h -0.767474 v -0.04733 h 0.767474 c 0.02029,0 0.03381,-0.01352 0.03381,-0.03381 v -0.75733 c 0,-0.02029 -0.01352,-0.03381 -0.03381,-0.03381 h -1.747946 c -0.02029,0 -0.03381,0.01352 -0.03381,0.03381 v 2.096182 c 0,0.02029 0.01352,0.03381 0.03381,0.03381 z"
               style="font-family:'FREE FAT FONT';-inkscape-font-specification:'FREE FAT FONT, Normal';fill:#000000;fill-opacity:1"
               id="path2711" />
          </g>
          <g
             aria-label="a"
             transform="matrix(0.92243529,0,0,0.93645646,6.6926897,-0.04187584)"
             id="text467"
             style="font-size:3.39044px;font-family:'FREE FAT FONT';-inkscape-font-specification:'FREE FAT FONT, Normal';white-space:pre;inline-size:3.2127;fill:#000000;fill-opacity:1;stroke-width:0.282536">
            <path
               d="m 48.271983,72.640307 h -1.342614 c -0.01695,0 -0.03051,0.0068 -0.0373,0.02712 l -0.335654,1.329053 v 0.779801 c 0,0.02034 0.01356,0.0339 0.0339,0.0339 h 0.952713 c 0.02034,0 0.0339,-0.01356 0.0339,-0.0339 v -0.427196 h 0.04747 v 0.427196 c 0,0.02034 0.01356,0.0339 0.0339,0.0339 h 0.952714 c 0.02034,0 0.0339,-0.01356 0.0339,-0.0339 V 73.996483 L 48.312668,72.66743 c -0.0068,-0.02034 -0.02034,-0.02712 -0.04069,-0.02712 z m -0.69165,0.596717 h 0.04069 l 0.0068,0.623841 h -0.05425 z"
               id="path2714"
               style="fill:#000000;fill-opacity:1" />
          </g>
          <g
             aria-label="R"
             id="text471"
             style="font-size:3.175px;font-family:'FREE FAT FONT';-inkscape-font-specification:'FREE FAT FONT, Normal';fill:#000000;fill-opacity:1;stroke-width:0.264583">
            <path
               d="m 51.577708,66.589592 v -0.244475 c 0,-0.28575 -0.15875,-0.4445 -0.4445,-0.4445 h -1.47955 c -0.01905,0 -0.03175,0.0127 -0.03175,0.03175 v 1.9685 c 0,0.01905 0.0127,0.03175 0.03175,0.03175 h 0.892175 c 0.01905,0 0.03175,-0.0127 0.03175,-0.03175 v -0.6604 l 0.04445,0.0508 v 0.6096 c 0,0.01905 0.0127,0.03175 0.03175,0.03175 h 0.892175 c 0.01905,0 0.03175,-0.0127 0.03175,-0.03175 v -0.7493 l -0.212725,-0.206375 c 0.130175,-0.06668 0.212725,-0.174625 0.212725,-0.3556 z m -0.955675,0.193675 h -0.04445 v -0.32385 h 0.04445 z"
               id="path2717"
               style="fill:#000000;fill-opacity:1" />
          </g>
          <g
             aria-label="c"
             transform="scale(1.000021,0.99997901)"
             id="text475"
             style="font-size:3.19518px;font-family:'FREE FAT FONT';-inkscape-font-specification:'FREE FAT FONT, Normal';fill:#000000;fill-opacity:1;stroke-width:0.266266">
            <path
               d="m 49.547812,66.914441 h -0.897845 c -0.01917,0 -0.03195,0.01278 -0.03195,0.03195 v 0.431349 h -0.04473 v -0.920211 h 0.04473 v 0.380226 c 0,0.01917 0.01278,0.03195 0.03195,0.03195 h 0.897845 c 0.01917,0 0.03195,-0.01278 0.03195,-0.03195 v -0.495253 c 0,-0.287566 -0.159759,-0.447325 -0.447325,-0.447325 h -1.073581 c -0.287566,0 -0.447325,0.159759 -0.447325,0.447325 v 1.150265 c 0,0.287566 0.159759,0.447325 0.447325,0.447325 h 1.073581 c 0.287566,0 0.447325,-0.159759 0.447325,-0.447325 v -0.546376 c 0,-0.01917 -0.01278,-0.03195 -0.03195,-0.03195 z"
               id="path2720"
               style="fill:#000000;fill-opacity:1" />
          </g>
          <g
             aria-label="E"
             transform="scale(1.0749363,0.9302877)"
             id="text479"
             style="font-size:3.41292px;font-family:'FREE FAT FONT';-inkscape-font-specification:'FREE FAT FONT, Normal';fill:#000000;fill-opacity:1;stroke-width:0.28441">
            <path
               d="m 44.328313,75.251816 h 1.764479 c 0.02048,0 0.03413,-0.01365 0.03413,-0.03413 v -0.733778 c 0,-0.01707 -0.01365,-0.03072 -0.03413,-0.03072 h -0.774733 v -0.05119 h 0.774733 c 0.02048,0 0.03413,-0.01365 0.03413,-0.03072 V 73.98221 c 0,-0.02048 -0.01365,-0.03413 -0.03413,-0.03413 H 45.318059 V 73.9003 h 0.774733 c 0.02048,0 0.03413,-0.01365 0.03413,-0.03413 v -0.764494 c 0,-0.02048 -0.01365,-0.03413 -0.03413,-0.03413 h -1.764479 c -0.02048,0 -0.03413,0.01365 -0.03413,0.03413 v 2.116011 c 0,0.02048 0.01365,0.03413 0.03413,0.03413 z"
               id="path2723"
               style="fill:#000000;fill-opacity:1" />
          </g>
          <g
             aria-label="T"
             transform="scale(1.1356688,0.8805384)"
             id="text483"
             style="font-size:3.60575px;font-family:'FREE FAT FONT';-inkscape-font-specification:'FREE FAT FONT, Normal';fill:#000000;fill-opacity:1;stroke-width:0.300479">
            <path
               d="m 43.623113,79.569616 h -1.665856 c -0.02163,0 -0.03606,0.01442 -0.03606,0.03606 v 0.807688 c 0,0.02163 0.01442,0.03606 0.03606,0.03606 h 0.292065 v 1.39182 c 0,0.02163 0.01442,0.03606 0.03606,0.03606 h 1.013216 c 0.01803,0 0.03245,-0.01442 0.03245,-0.03606 v -1.39182 h 0.292066 c 0.02164,0 0.03606,-0.01442 0.03606,-0.03606 v -0.807688 c 0,-0.02163 -0.01442,-0.03606 -0.03606,-0.03606 z"
               id="path2726"
               style="fill:#000000;fill-opacity:1" />
          </g>
        </g>
      </g>
    </g>
  </g>
</svg>
